<svg xmlns="http://www.w3.org/2000/svg" width="90.676" height="79.031" viewBox="0 0 90.676 79.031">
  <path id="Icon_awesome-edit" data-name="Icon awesome-edit" d="M60.583,12.187,74.156,25.408a1.407,1.407,0,0,1,0,2.023L41.292,59.442l-13.965,1.51A2.889,2.889,0,0,1,24.092,57.8l1.55-13.6L58.507,12.187A1.5,1.5,0,0,1,60.583,12.187ZM84.961,8.831,77.617,1.678a6,6,0,0,0-8.306,0L63.984,6.867a1.407,1.407,0,0,0,0,2.023L77.557,22.11a1.5,1.5,0,0,0,2.077,0l5.327-5.189a5.628,5.628,0,0,0,0-8.091ZM57.784,50.736V65.657H9.631v-46.9h34.58a1.876,1.876,0,0,0,1.279-.513l6.019-5.863a1.754,1.754,0,0,0-1.279-3H7.223A7.133,7.133,0,0,0,0,16.409V68a7.133,7.133,0,0,0,7.223,7.035H60.192A7.133,7.133,0,0,0,67.415,68V44.873a1.815,1.815,0,0,0-3.085-1.246L58.311,49.49A1.778,1.778,0,0,0,57.784,50.736Z" transform="translate(2 1.993)" fill="none" stroke="#000" stroke-width="4"/>
</svg>
