<svg xmlns="http://www.w3.org/2000/svg" width="73.454" height="73.472" viewBox="0 0 73.454 73.472">
  <g id="open-box" transform="translate(0.499 0.511)">
    <path id="Path_12303" data-name="Path 12303" d="M72.454,19.806a1.071,1.071,0,0,0-.493-.879L49.518,4.715a1.063,1.063,0,0,0-.359-.144L26.439.023a1.066,1.066,0,0,0-.776,1.937L35.831,8.4l-8.185,2.429L20.712,6.437a1.062,1.062,0,0,0-1.149.009l-8.407,5.5a1.062,1.062,0,0,0,1.163,1.776L20.154,8.6,40.627,21.56,23.5,32.773,3.023,19.809l4.611-3.018a1.062,1.062,0,0,0-1.163-1.776L.481,18.935a1.077,1.077,0,0,0-.48.888v37.36a1.061,1.061,0,0,0,.494.9L22.938,72.291a1.08,1.08,0,0,0,.87.121l38.9-11.546a1.062,1.062,0,0,0-.6-2.035L24.567,69.973V34.827L70.332,21.245V56.391l-2.9.86a1.062,1.062,0,0,0,.6,2.035L71.7,58.2a1.061,1.061,0,0,0,.759-1.017V19.823c0-.006,0-.012,0-.017ZM48.548,6.614,65.993,17.66,49.076,14.273,31.632,3.227ZM43.156,20.648,30.026,12.335l8.185-2.429,9.9,6.266a1.063,1.063,0,0,0,.359.144l18.521,3.708L30.146,30.957l13.023-8.524a1.061,1.061,0,0,0-.013-1.785Zm-41.032,1.1L22.445,34.619V69.466L2.124,56.6Z" transform="translate(0)" stroke="#000" stroke-width="1"/>
    <path id="Path_12304" data-name="Path 12304" d="M238.536,292.263a1.061,1.061,0,0,0-.937-.166l-35.907,10.685a1.061,1.061,0,0,0-.759,1.017v10.357a1.061,1.061,0,0,0,1.364,1.017L238.2,304.487a1.061,1.061,0,0,0,.759-1.017V293.113A1.061,1.061,0,0,0,238.536,292.263Zm-1.7,10.416-33.784,10.053V304.59l33.784-10.053Z" transform="translate(-172.498 -250.723)" stroke="#000" stroke-width="1"/>
    <path id="Path_12305" data-name="Path 12305" d="M285.24,374.47a1.061,1.061,0,0,0,1.061-1.061V370.4a1.062,1.062,0,0,0-2.123,0v3.008A1.061,1.061,0,0,0,285.24,374.47Z" transform="translate(-243.964 -317.11)" stroke="#000" stroke-width="1"/>
    <path id="Path_12306" data-name="Path 12306" d="M384.771,343.963a1.061,1.061,0,0,0,1.061-1.061v-3.008a1.062,1.062,0,0,0-2.123,0V342.9A1.061,1.061,0,0,0,384.771,343.963Z" transform="translate(-329.41 -290.92)" stroke="#000" stroke-width="1"/>
    <path id="Path_12307" data-name="Path 12307" d="M406.907,337.963a1.061,1.061,0,0,0,1.061-1.061v-3.008a1.062,1.062,0,0,0-2.123,0V336.9A1.061,1.061,0,0,0,406.907,337.963Z" transform="translate(-348.413 -285.769)" stroke="#000" stroke-width="1"/>
    <path id="Path_12308" data-name="Path 12308" d="M429.043,331.963A1.061,1.061,0,0,0,430.1,330.9v-3.008a1.062,1.062,0,0,0-2.123,0V330.9A1.061,1.061,0,0,0,429.043,331.963Z" transform="translate(-367.417 -280.618)" stroke="#000" stroke-width="1"/>
    <path id="Path_12309" data-name="Path 12309" d="M228.9,391.234a1.061,1.061,0,0,0,1.061-1.061v-3.008a1.062,1.062,0,0,0-2.123,0v3.008A1.061,1.061,0,0,0,228.9,391.234Z" transform="translate(-195.593 -331.501)" stroke="#000" stroke-width="1"/>
    <path id="Path_12310" data-name="Path 12310" d="M250.574,385.9a1.061,1.061,0,0,0,1.061-1.061v-3.008a1.062,1.062,0,0,0-2.123,0v3.008A1.061,1.061,0,0,0,250.574,385.9Z" transform="translate(-214.203 -326.922)" stroke="#000" stroke-width="1"/>
    <path id="Path_12311" data-name="Path 12311" d="M324.4,362.362a1.061,1.061,0,0,0,1.061-1.061v-3.008a1.062,1.062,0,0,0-2.123,0V361.3A1.061,1.061,0,0,0,324.4,362.362Z" transform="translate(-277.585 -306.715)" stroke="#000" stroke-width="1"/>
    <path id="Path_12312" data-name="Path 12312" d="M345.607,356.932a1.061,1.061,0,0,0,1.061-1.061v-3.008a1.062,1.062,0,0,0-2.123,0v3.008A1.061,1.061,0,0,0,345.607,356.932Z" transform="translate(-295.788 -302.054)" stroke="#000" stroke-width="1"/>
  </g>
</svg>
